<svg id="svg" version="1.1" xmlns="http://www.w3.org/2000/svg" xmlns:xlink="http://www.w3.org/1999/xlink" width="400" height="400" viewBox="0, 0, 400,400"><g id="svgg"><path id="path0" d="M205.245 42.827 C 204.279 43.020,203.426 43.241,203.348 43.319 C 202.274 44.393,201.857 99.561,202.915 100.529 C 204.608 102.077,205.324 102.198,214.200 102.439 C 223.625 102.695,225.168 102.968,227.204 104.746 C 228.687 106.040,231.937 106.797,236.046 106.805 C 239.565 106.811,242.640 107.689,243.653 108.976 C 244.776 110.404,246.459 111.200,248.354 111.200 C 250.523 111.200,251.941 111.796,253.600 113.407 C 254.991 114.757,257.739 116.000,259.334 116.000 C 259.810 116.000,260.873 116.768,261.811 117.790 C 262.715 118.774,264.081 119.842,264.847 120.162 C 265.613 120.482,266.860 121.475,267.620 122.370 C 268.379 123.264,269.231 123.997,269.514 123.998 C 270.244 124.001,271.926 125.136,273.892 126.952 C 274.823 127.812,276.263 128.975,277.092 129.536 C 278.932 130.780,279.248 131.105,279.955 132.477 C 280.261 133.069,281.215 134.309,282.075 135.232 C 282.936 136.155,284.013 137.641,284.469 138.536 C 284.926 139.430,286.087 140.950,287.049 141.913 C 288.012 142.875,288.800 143.801,288.800 143.970 C 288.800 144.825,290.175 146.838,291.392 147.767 C 292.386 148.525,292.830 149.229,292.996 150.308 C 293.438 153.187,294.412 155.889,295.422 157.039 C 296.881 158.699,297.389 160.093,298.126 164.458 C 298.513 166.753,299.264 169.346,299.979 170.858 C 302.324 175.820,302.400 176.576,302.400 194.984 C 302.400 208.319,302.277 212.380,301.807 214.600 C 300.847 219.131,300.989 222.153,302.220 223.384 L 303.240 224.404 341.520 224.302 L 379.800 224.200 379.800 134.760 C 379.800 37.788,379.937 43.638,377.653 42.965 C 376.180 42.531,207.407 42.396,205.245 42.827 M204.385 138.900 L 202.600 139.800 202.600 182.000 L 202.600 224.200 225.135 224.303 C 252.432 224.429,250.997 224.590,252.688 221.201 C 253.397 219.781,254.596 218.075,255.353 217.410 C 257.098 215.877,257.468 214.538,257.783 208.600 C 257.923 205.960,258.192 201.730,258.381 199.200 C 258.570 196.670,258.576 192.620,258.394 190.200 C 258.212 187.780,257.938 183.405,257.785 180.477 L 257.508 175.154 255.832 173.454 C 254.348 171.948,254.095 171.411,253.628 168.777 C 253.152 166.090,252.935 165.644,251.403 164.200 C 250.416 163.270,249.410 161.805,248.998 160.700 C 248.610 159.655,248.136 158.800,247.946 158.800 C 247.756 158.800,247.600 158.613,247.600 158.384 C 247.600 158.155,246.914 157.296,246.076 156.474 C 245.238 155.653,244.226 154.429,243.828 153.756 C 243.430 153.082,242.541 152.223,241.852 151.847 C 241.164 151.470,239.760 150.385,238.734 149.436 C 237.561 148.350,236.151 147.502,234.938 147.154 C 233.553 146.757,232.480 146.049,231.140 144.650 C 229.325 142.756,229.189 142.693,226.331 142.413 C 224.713 142.254,222.986 141.917,222.494 141.662 C 222.003 141.408,221.215 141.003,220.745 140.762 C 220.275 140.522,219.319 140.004,218.621 139.612 C 215.353 137.776,207.402 137.379,204.385 138.900 M20.400 264.940 C 20.400 361.136,20.277 356.055,22.637 357.041 C 25.046 358.048,195.749 357.851,196.760 356.840 C 197.319 356.281,197.523 355.479,197.544 353.766 C 197.564 352.109,197.749 351.349,198.192 351.101 C 200.549 349.782,200.400 351.868,200.400 320.125 L 200.400 291.200 199.162 291.200 C 198.481 291.200,197.356 290.795,196.662 290.300 L 195.400 289.400 156.333 289.200 C 134.846 289.090,117.192 288.910,117.101 288.800 C 115.529 286.905,115.600 289.450,115.600 234.830 C 115.600 183.131,115.598 183.032,114.737 179.519 L 113.874 176.000 67.137 176.000 L 20.400 176.000 20.400 264.940 M161.704 176.900 C 159.648 181.189,159.600 182.131,159.600 217.800 L 159.601 251.000 160.547 252.100 L 161.493 253.200 178.047 253.199 C 197.641 253.199,197.316 253.257,197.521 249.700 L 197.642 247.600 199.397 247.600 C 200.363 247.600,201.264 247.420,201.400 247.200 C 201.536 246.980,201.367 246.800,201.024 246.800 C 200.464 246.800,200.400 243.612,200.400 215.811 L 200.400 184.823 199.445 182.663 C 198.919 181.475,198.289 180.379,198.045 180.228 C 197.800 180.076,197.600 179.063,197.600 177.976 L 197.600 176.000 179.868 176.000 L 162.135 176.000 161.704 176.900 " stroke="none" fill="#f48434" fill-rule="evenodd"></path><path id="path1" d="M197.200 101.160 C 195.529 103.247,196.481 103.200,155.613 103.200 C 119.415 103.200,117.694 103.233,117.062 103.931 C 116.457 104.600,116.400 107.551,116.400 138.144 C 116.400 173.757,116.428 173.205,114.512 174.911 C 113.714 175.621,113.714 175.628,114.656 179.255 L 115.600 182.888 115.600 234.755 C 115.600 289.455,115.529 286.905,117.101 288.800 C 117.192 288.910,134.846 289.090,156.333 289.200 L 195.400 289.400 196.662 290.300 C 198.604 291.686,201.849 291.575,203.265 290.074 C 204.627 288.632,206.448 288.103,211.622 287.645 C 214.282 287.410,216.963 286.879,219.000 286.183 C 223.200 284.749,227.158 284.001,230.554 284.000 C 235.189 284.000,238.348 283.239,239.345 281.884 C 240.509 280.302,242.007 279.600,244.219 279.600 C 246.900 279.600,250.218 278.520,251.512 277.227 C 252.833 275.905,254.849 274.800,255.937 274.800 C 256.364 274.800,257.614 273.990,258.716 273.000 C 259.817 272.010,260.998 271.200,261.340 271.200 C 261.938 271.200,263.225 270.751,265.074 269.897 C 265.554 269.675,266.165 268.968,266.431 268.325 C 266.721 267.624,267.561 266.828,268.532 266.333 C 270.257 265.452,271.200 264.670,271.200 264.117 C 271.200 263.725,272.665 262.402,273.105 262.397 C 273.488 262.392,276.400 259.635,276.401 259.275 C 276.402 259.124,276.940 258.640,277.598 258.200 C 278.256 257.760,279.197 256.641,279.689 255.713 C 280.190 254.770,281.166 253.714,281.904 253.316 C 282.775 252.847,283.515 251.960,284.083 250.703 C 284.556 249.656,285.181 248.800,285.471 248.800 C 285.762 248.800,286.000 248.632,286.000 248.427 C 286.000 248.222,286.337 247.947,286.750 247.816 C 287.182 247.679,287.788 246.779,288.181 245.689 C 289.276 242.652,289.707 241.874,291.045 240.525 C 292.225 239.334,292.520 238.541,293.430 234.104 C 293.531 233.611,294.401 232.420,295.363 231.458 C 296.413 230.408,297.227 229.167,297.398 228.354 C 297.916 225.903,299.382 224.804,302.175 224.775 C 304.142 224.754,304.419 224.677,303.638 224.365 C 301.113 223.355,300.568 220.450,301.807 214.600 C 302.277 212.380,302.400 208.319,302.400 194.984 C 302.400 176.576,302.324 175.820,299.979 170.858 C 299.264 169.346,298.513 166.753,298.126 164.458 C 297.389 160.093,296.881 158.699,295.422 157.039 C 294.412 155.889,293.438 153.187,292.996 150.308 C 292.830 149.229,292.386 148.525,291.392 147.767 C 290.175 146.838,288.800 144.825,288.800 143.970 C 288.800 143.801,288.012 142.875,287.049 141.913 C 286.087 140.950,284.926 139.430,284.469 138.536 C 284.013 137.641,282.936 136.155,282.075 135.232 C 281.215 134.309,280.261 133.069,279.955 132.477 C 279.248 131.105,278.932 130.780,277.092 129.536 C 276.263 128.975,274.823 127.812,273.892 126.952 C 271.926 125.136,270.244 124.001,269.514 123.998 C 269.231 123.997,268.379 123.264,267.620 122.370 C 266.860 121.475,265.613 120.482,264.847 120.162 C 264.081 119.842,262.715 118.774,261.811 117.790 C 260.873 116.768,259.810 116.000,259.334 116.000 C 257.739 116.000,254.991 114.757,253.600 113.407 C 251.941 111.796,250.523 111.200,248.354 111.200 C 246.459 111.200,244.776 110.404,243.653 108.976 C 242.640 107.689,239.565 106.811,236.046 106.805 C 231.937 106.797,228.687 106.040,227.204 104.746 C 225.176 102.975,223.618 102.696,214.200 102.415 C 205.731 102.162,203.214 101.770,203.203 100.700 C 203.196 99.985,197.810 100.398,197.200 101.160 M194.364 137.453 C 195.060 137.592,196.181 138.222,196.857 138.853 C 198.500 140.388,201.318 140.444,204.168 138.998 C 207.365 137.376,215.236 137.710,218.621 139.612 C 219.319 140.004,220.275 140.522,220.745 140.762 C 221.215 141.003,222.003 141.408,222.494 141.662 C 222.986 141.917,224.713 142.254,226.331 142.413 C 229.189 142.693,229.325 142.756,231.140 144.650 C 232.480 146.049,233.553 146.757,234.938 147.154 C 236.151 147.502,237.561 148.350,238.734 149.436 C 239.760 150.385,241.164 151.470,241.852 151.847 C 242.541 152.223,243.430 153.082,243.828 153.756 C 244.226 154.429,245.238 155.653,246.076 156.474 C 246.914 157.296,247.600 158.155,247.600 158.384 C 247.600 158.613,247.756 158.800,247.946 158.800 C 248.136 158.800,248.610 159.655,248.998 160.700 C 249.410 161.805,250.416 163.270,251.403 164.200 C 252.935 165.644,253.152 166.090,253.628 168.777 C 254.095 171.411,254.348 171.948,255.832 173.454 L 257.508 175.154 257.785 180.477 C 257.938 183.405,258.212 187.780,258.394 190.200 C 258.576 192.620,258.570 196.670,258.381 199.200 C 258.192 201.730,257.923 205.960,257.783 208.600 C 257.468 214.538,257.098 215.877,255.353 217.410 C 254.596 218.075,253.397 219.781,252.688 221.199 L 251.400 223.779 249.000 224.238 C 246.912 224.638,246.795 224.704,248.100 224.749 C 250.618 224.835,250.355 231.432,247.779 232.811 C 247.315 233.060,246.604 233.823,246.200 234.508 C 244.816 236.850,239.736 241.145,238.254 241.224 C 238.004 241.238,237.260 241.980,236.600 242.873 C 235.733 244.046,234.733 244.771,233.000 245.485 C 231.680 246.029,230.060 246.963,229.400 247.562 C 227.643 249.156,226.291 249.600,223.193 249.600 C 220.257 249.600,218.427 250.307,216.673 252.118 C 215.521 253.308,212.689 254.000,208.968 254.000 C 204.212 254.000,202.400 252.699,202.400 249.284 C 202.400 247.221,202.353 247.119,201.500 247.348 C 201.005 247.481,199.934 247.592,199.121 247.595 L 197.642 247.600 197.521 249.700 C 197.316 253.257,197.641 253.199,178.047 253.199 L 161.493 253.200 160.547 252.100 L 159.601 251.000 159.600 217.677 C 159.600 195.760,159.744 183.712,160.022 182.477 C 160.713 179.400,161.327 177.451,161.881 176.568 C 162.343 175.831,162.295 175.679,161.452 175.228 C 158.873 173.847,158.799 173.302,158.813 155.746 L 158.825 139.800 159.759 138.740 C 160.273 138.156,161.032 137.592,161.447 137.486 C 162.588 137.193,192.914 137.163,194.364 137.453 " stroke="none" fill="#fcfbfb" fill-rule="evenodd"></path><path id="path2" d="M20.400 87.800 L 20.400 175.600 67.000 175.600 L 113.600 175.600 113.600 139.026 C 113.600 116.230,113.747 102.066,113.990 101.426 L 114.380 100.400 155.990 100.400 L 197.600 100.400 197.600 50.200 L 197.600 0.000 109.000 0.000 L 20.400 0.000 20.400 87.800 M162.400 157.800 L 162.400 175.600 180.000 175.600 L 197.600 175.600 197.600 157.800 L 197.600 140.000 180.000 140.000 L 162.400 140.000 162.400 157.800 M202.667 225.067 C 202.520 225.213,202.400 230.223,202.400 236.198 L 202.400 247.063 204.300 247.942 C 206.143 248.794,206.283 248.801,209.000 248.198 C 214.181 247.048,216.181 246.805,220.477 246.802 L 224.754 246.800 224.877 245.100 C 225.028 243.008,226.225 242.457,230.700 242.423 L 233.600 242.400 233.600 241.076 C 233.600 239.212,234.362 238.383,236.314 238.121 C 237.241 237.996,238.001 237.693,238.002 237.447 C 238.013 235.231,238.836 234.085,240.607 233.820 C 241.593 233.672,242.401 233.337,242.402 233.075 C 242.411 231.119,243.279 229.600,244.386 229.600 C 246.518 229.600,246.800 229.291,246.800 226.957 L 246.800 224.800 224.867 224.800 C 212.803 224.800,202.813 224.920,202.667 225.067 M304.000 225.236 C 304.000 225.875,302.360 227.124,301.160 227.399 C 300.140 227.633,300.114 227.722,299.864 231.919 C 299.580 236.665,299.069 237.600,296.756 237.600 C 295.640 237.600,295.600 237.667,295.600 239.545 C 295.600 244.464,294.970 246.000,292.833 246.286 C 291.376 246.482,291.200 246.623,291.200 247.593 C 291.200 249.134,290.413 251.200,289.825 251.200 C 289.552 251.200,289.130 251.634,288.889 252.165 C 288.647 252.696,288.105 253.240,287.685 253.373 C 286.968 253.601,286.000 255.866,286.000 257.317 C 286.000 258.111,284.131 259.600,283.134 259.600 C 282.361 259.600,282.245 259.785,281.833 261.672 C 281.498 263.207,280.541 264.000,279.023 264.000 C 277.804 264.000,277.666 264.134,277.207 265.775 C 276.709 267.552,274.946 268.800,272.932 268.800 C 272.573 268.800,271.336 269.790,270.183 271.000 C 268.248 273.030,267.947 273.200,266.286 273.200 C 264.348 273.200,264.000 273.560,264.000 275.569 C 264.000 277.090,262.691 277.600,258.781 277.600 C 255.952 277.600,255.600 277.682,255.600 278.340 C 255.600 281.372,254.624 282.050,249.800 282.365 C 246.522 282.579,246.189 282.676,246.079 283.450 C 245.762 285.671,242.395 286.798,236.069 286.803 C 232.219 286.805,232.197 286.811,231.540 287.965 C 230.065 290.558,226.412 291.170,212.300 291.188 L 202.400 291.200 202.400 345.600 L 202.400 400.000 291.200 400.000 L 380.000 400.000 380.000 312.400 L 380.000 224.800 342.000 224.800 C 314.848 224.800,304.000 224.924,304.000 225.236 " stroke="none" fill="#148c94" fill-rule="evenodd"></path><path id="path3" d="M197.600 50.120 L 197.600 100.240 195.276 100.720 C 193.566 101.073,182.866 101.204,154.776 101.213 C 116.714 101.227,116.597 101.229,115.600 102.058 L 114.600 102.890 114.379 138.345 C 114.258 157.845,114.005 174.250,113.817 174.800 L 113.474 175.800 114.392 175.000 C 116.446 173.211,116.400 174.051,116.400 138.075 C 116.400 106.079,116.434 104.493,117.131 103.862 C 117.801 103.256,121.052 103.200,155.683 103.200 C 196.486 103.200,195.420 103.252,197.237 101.157 C 197.621 100.715,198.416 100.400,199.147 100.400 L 200.400 100.400 200.400 50.200 L 200.400 0.000 199.000 0.000 L 197.600 0.000 197.600 50.120 M161.447 137.486 C 161.032 137.592,160.273 138.156,159.759 138.740 L 158.825 139.800 158.813 155.746 C 158.799 173.140,158.863 173.648,161.269 175.150 C 162.400 175.857,162.498 175.577,161.804 173.612 C 160.723 170.548,160.920 140.178,162.025 139.587 C 162.998 139.066,195.771 139.222,196.896 139.754 C 197.538 140.057,197.599 141.378,197.696 156.941 L 197.800 173.800 199.100 172.458 L 200.400 171.115 200.400 155.558 L 200.400 140.000 199.242 140.000 C 198.520 140.000,197.623 139.569,196.857 138.853 C 196.181 138.222,195.060 137.592,194.364 137.453 C 192.914 137.163,162.588 137.193,161.447 137.486 M247.600 227.194 C 247.600 229.535,247.565 229.612,246.037 230.623 C 245.177 231.192,244.253 232.189,243.984 232.838 C 243.716 233.486,242.754 234.515,241.848 235.123 C 240.942 235.731,239.975 236.696,239.701 237.267 C 239.402 237.888,238.318 238.738,237.001 239.382 C 235.656 240.040,234.795 240.720,234.787 241.129 C 234.767 242.203,233.791 243.200,232.756 243.204 C 230.586 243.214,227.869 244.409,226.401 245.999 C 224.946 247.575,224.880 247.600,222.107 247.600 C 218.646 247.600,215.542 248.521,213.301 250.213 C 210.061 252.660,203.611 252.441,202.972 249.863 L 202.660 248.600 202.502 249.937 C 202.006 254.133,213.074 255.836,216.673 252.118 C 218.427 250.307,220.257 249.600,223.193 249.600 C 226.291 249.600,227.643 249.156,229.400 247.562 C 230.060 246.963,231.680 246.029,233.000 245.485 C 234.733 244.771,235.733 244.046,236.600 242.873 C 237.260 241.980,238.004 241.238,238.254 241.224 C 239.736 241.145,244.816 236.850,246.200 234.508 C 246.604 233.823,247.315 233.060,247.779 232.811 C 249.261 232.018,249.829 230.123,249.673 226.500 C 249.538 223.366,247.600 224.015,247.600 227.194 M298.717 225.900 C 298.149 226.505,297.556 227.609,297.398 228.354 C 297.227 229.167,296.413 230.408,295.363 231.458 C 294.401 232.420,293.531 233.611,293.430 234.104 C 292.520 238.541,292.225 239.334,291.045 240.525 C 289.707 241.874,289.276 242.652,288.181 245.689 C 287.788 246.779,287.182 247.679,286.750 247.816 C 286.337 247.947,286.000 248.222,286.000 248.427 C 286.000 248.632,285.762 248.800,285.471 248.800 C 285.181 248.800,284.556 249.656,284.083 250.703 C 283.515 251.960,282.775 252.847,281.904 253.316 C 281.166 253.714,280.190 254.770,279.689 255.713 C 279.197 256.641,278.256 257.760,277.598 258.200 C 276.940 258.640,276.402 259.124,276.401 259.275 C 276.400 259.635,273.488 262.392,273.105 262.397 C 272.665 262.402,271.200 263.725,271.200 264.117 C 271.200 264.670,270.257 265.452,268.532 266.333 C 267.561 266.828,266.721 267.624,266.431 268.325 C 266.165 268.968,265.554 269.675,265.074 269.897 C 263.225 270.751,261.938 271.200,261.340 271.200 C 260.998 271.200,259.817 272.010,258.716 273.000 C 257.614 273.990,256.364 274.800,255.937 274.800 C 254.849 274.800,252.833 275.905,251.512 277.227 C 250.218 278.520,246.900 279.600,244.219 279.600 C 242.007 279.600,240.509 280.302,239.345 281.884 C 238.348 283.239,235.189 284.000,230.554 284.000 C 227.158 284.001,223.200 284.749,219.000 286.183 C 216.963 286.879,214.282 287.410,211.622 287.645 C 206.584 288.090,204.695 288.614,203.381 289.928 C 202.160 291.149,202.269 291.296,204.024 290.793 C 204.778 290.577,206.656 290.401,208.197 290.401 C 216.578 290.405,225.061 289.130,226.346 287.675 C 227.412 286.469,229.474 286.001,233.760 285.991 C 238.287 285.981,240.430 285.305,241.914 283.419 C 242.876 282.196,245.922 281.212,248.772 281.205 C 251.436 281.198,253.084 280.452,253.807 278.928 C 254.540 277.385,255.470 276.800,257.194 276.800 C 259.060 276.800,262.400 274.865,262.400 273.783 C 262.400 273.541,263.429 272.996,264.688 272.571 C 266.585 271.930,267.126 271.530,267.859 270.223 C 268.454 269.162,269.244 268.444,270.277 268.024 C 272.419 267.153,272.797 266.860,273.222 265.742 C 273.437 265.176,274.216 264.502,275.062 264.148 C 276.976 263.349,280.838 259.453,281.824 257.327 C 282.251 256.407,283.042 255.449,283.583 255.198 C 284.757 254.653,285.725 253.380,286.002 252.017 C 286.129 251.391,286.786 250.697,287.777 250.141 C 288.954 249.481,289.536 248.783,290.094 247.364 C 290.503 246.322,291.504 244.821,292.319 244.028 C 293.775 242.611,294.800 240.050,294.800 237.827 C 294.800 237.256,295.586 235.943,296.733 234.599 C 298.351 232.704,298.752 231.898,299.191 229.667 C 299.897 226.075,299.940 225.989,301.360 225.371 L 302.600 224.831 301.175 224.816 C 300.125 224.804,299.478 225.089,298.717 225.900 " stroke="none" fill="#64b4bc" fill-rule="evenodd"></path><path id="path4" d="M113.990 101.426 C 113.529 102.640,113.439 174.694,113.900 174.234 C 114.065 174.069,114.290 157.949,114.400 138.412 L 114.600 102.890 115.600 102.058 C 116.596 101.230,116.737 101.226,155.200 101.173 C 176.430 101.144,194.250 100.976,194.800 100.800 C 195.350 100.624,177.481 100.462,155.090 100.440 L 114.380 100.400 113.990 101.426 M161.900 139.632 C 160.966 140.176,160.874 171.196,161.800 173.600 C 162.266 174.810,162.343 172.625,162.370 157.500 L 162.400 140.000 179.700 139.950 C 189.765 139.921,196.247 139.766,195.200 139.580 C 192.483 139.096,162.740 139.143,161.900 139.632 M246.800 226.957 C 246.800 229.291,246.518 229.600,244.386 229.600 C 243.279 229.600,242.411 231.119,242.402 233.075 C 242.401 233.337,241.593 233.672,240.607 233.820 C 238.836 234.085,238.013 235.231,238.002 237.447 C 238.001 237.693,237.241 237.996,236.314 238.121 C 234.362 238.383,233.600 239.212,233.600 241.076 L 233.600 242.400 230.700 242.423 C 226.225 242.457,225.028 243.008,224.877 245.100 L 224.754 246.800 220.277 246.824 C 215.720 246.848,214.572 246.986,209.111 248.162 C 206.088 248.814,205.988 248.810,204.372 247.986 C 202.337 246.947,202.164 247.101,202.830 249.355 C 203.742 252.443,209.701 252.932,213.301 250.213 C 215.542 248.521,218.646 247.600,222.107 247.600 C 224.880 247.600,224.946 247.575,226.401 245.999 C 227.869 244.409,230.586 243.214,232.756 243.204 C 233.791 243.200,234.767 242.203,234.787 241.129 C 234.795 240.720,235.656 240.040,237.001 239.382 C 238.318 238.738,239.402 237.888,239.701 237.267 C 239.975 236.696,240.942 235.731,241.848 235.123 C 242.754 234.515,243.716 233.486,243.984 232.838 C 244.253 232.189,245.177 231.192,246.037 230.623 C 247.586 229.598,248.545 224.800,247.200 224.800 C 246.980 224.800,246.800 225.771,246.800 226.957 M301.360 225.371 C 299.940 225.989,299.897 226.075,299.191 229.667 C 298.752 231.898,298.351 232.704,296.733 234.599 C 295.586 235.943,294.800 237.256,294.800 237.827 C 294.800 240.050,293.775 242.611,292.319 244.028 C 291.504 244.821,290.503 246.322,290.094 247.364 C 289.536 248.783,288.954 249.481,287.777 250.141 C 286.786 250.697,286.129 251.391,286.002 252.017 C 285.725 253.380,284.757 254.653,283.583 255.198 C 283.042 255.449,282.251 256.407,281.824 257.327 C 280.838 259.453,276.976 263.349,275.062 264.148 C 274.216 264.502,273.437 265.176,273.222 265.742 C 272.797 266.860,272.419 267.153,270.277 268.024 C 269.244 268.444,268.454 269.162,267.859 270.223 C 267.126 271.530,266.585 271.930,264.688 272.571 C 263.429 272.996,262.400 273.541,262.400 273.783 C 262.400 274.865,259.060 276.800,257.194 276.800 C 255.470 276.800,254.540 277.385,253.807 278.928 C 253.084 280.452,251.436 281.198,248.772 281.205 C 245.922 281.212,242.876 282.196,241.914 283.419 C 240.430 285.305,238.287 285.981,233.760 285.991 C 229.474 286.001,227.412 286.469,226.346 287.675 C 225.062 289.130,217.145 290.323,208.000 290.441 C 206.350 290.462,204.550 290.624,204.000 290.800 C 203.436 290.981,207.184 291.132,212.600 291.148 C 226.319 291.187,230.065 290.557,231.540 287.965 C 232.197 286.811,232.219 286.805,236.069 286.803 C 242.395 286.798,245.762 285.671,246.079 283.450 C 246.189 282.676,246.522 282.579,249.800 282.365 C 254.624 282.050,255.600 281.372,255.600 278.340 C 255.600 277.682,255.952 277.600,258.781 277.600 C 262.691 277.600,264.000 277.090,264.000 275.569 C 264.000 273.560,264.348 273.200,266.286 273.200 C 267.947 273.200,268.248 273.030,270.183 271.000 C 271.336 269.790,272.573 268.800,272.932 268.800 C 274.946 268.800,276.709 267.552,277.207 265.775 C 277.666 264.134,277.804 264.000,279.023 264.000 C 280.541 264.000,281.498 263.207,281.833 261.672 C 282.245 259.785,282.361 259.600,283.134 259.600 C 284.131 259.600,286.000 258.111,286.000 257.317 C 286.000 255.866,286.968 253.601,287.685 253.373 C 288.105 253.240,288.647 252.696,288.889 252.165 C 289.130 251.634,289.552 251.200,289.825 251.200 C 290.413 251.200,291.200 249.134,291.200 247.593 C 291.200 246.623,291.376 246.482,292.833 246.286 C 294.970 246.000,295.600 244.464,295.600 239.545 C 295.600 237.667,295.640 237.600,296.756 237.600 C 299.069 237.600,299.580 236.665,299.864 231.919 C 300.114 227.722,300.140 227.633,301.160 227.399 C 302.360 227.124,304.000 225.875,304.000 225.236 C 304.000 224.653,302.878 224.710,301.360 225.371 " stroke="none" fill="#20949c" fill-rule="evenodd"></path></g></svg>